<?xml version="1.0" encoding="utf-8"?>
<!-- Generator: Adobe Illustrator 16.0.0, SVG Export Plug-In . SVG Version: 6.00 Build 0)  -->
<!DOCTYPE svg PUBLIC "-//W3C//DTD SVG 1.1//EN" "http://www.w3.org/Graphics/SVG/1.1/DTD/svg11.dtd">
<svg version="1.1" id="Layer_1" xmlns="http://www.w3.org/2000/svg" xmlns:xlink="http://www.w3.org/1999/xlink" x="0px" y="0px"
	 width="363.221px" height="293.729px" viewBox="0 0 363.221 293.729" enable-background="new 0 0 363.221 293.729"
	 xml:space="preserve">
<g>
	<rect fill="#FFFFFF" width="363.221" height="293.729"/>
	<path fill="#004994" d="M194.16,226.266v-32.404h7.679v32.404H194.16z M207.873,226.266v-32.404h7.677v32.404H207.873z"/>
	<path fill="#004994" d="M254.833,209.982c0,1.486-0.17,2.939-0.512,4.352c-0.339,1.412-0.826,2.744-1.467,3.992
		c-0.638,1.248-1.422,2.393-2.354,3.438c-0.932,1.045-1.988,1.941-3.166,2.691c-1.178,0.748-2.475,1.334-3.885,1.758
		c-1.412,0.42-2.921,0.633-4.528,0.633c-1.7,0-3.297-0.236-4.79-0.705c-1.494-0.469-2.866-1.123-4.117-1.961
		c-1.248-0.838-2.353-1.838-3.313-2.998c-0.96-1.16-1.753-2.434-2.374-3.822c-0.619-1.389-1.055-2.863-1.301-4.432
		c-0.245-1.564-0.274-3.168-0.087-4.807h17.211v6.33h-9.72c0.34,0.865,0.785,1.66,1.334,2.381c0.552,0.721,1.19,1.342,1.917,1.863
		c0.726,0.521,1.529,0.926,2.407,1.225c0.88,0.291,1.824,0.439,2.832,0.439c1.314,0,2.533-0.266,3.658-0.785
		c1.125-0.521,2.098-1.242,2.919-2.162c0.819-0.92,1.467-2.014,1.935-3.281c0.469-1.264,0.702-2.646,0.702-4.148
		c0-1.521-0.225-2.93-0.677-4.209c-0.452-1.285-1.082-2.387-1.897-3.307c-0.814-0.92-1.791-1.639-2.92-2.154
		c-1.129-0.514-2.368-0.775-3.719-0.775c-0.912,0-1.804,0.135-2.673,0.4c-0.867,0.26-1.693,0.674-2.477,1.229
		c-0.788,0.559-1.521,1.271-2.198,2.146c-0.681,0.873-1.301,1.924-1.865,3.156l-6.262-2.531c0.778-1.727,1.695-3.262,2.763-4.607
		c1.067-1.348,2.255-2.484,3.57-3.414c1.311-0.922,2.736-1.631,4.271-2.117c1.535-0.486,3.16-0.729,4.871-0.729
		c1.664,0,3.216,0.213,4.65,0.641c1.437,0.432,2.746,1.02,3.929,1.773c1.185,0.76,2.231,1.666,3.141,2.719
		c0.907,1.055,1.673,2.205,2.296,3.457c0.621,1.246,1.091,2.58,1.413,3.99C254.672,207.063,254.833,208.506,254.833,209.982z"/>
	<path fill="#004994" d="M290.124,226.266h-6.98V207.75c0-1.15-0.213-2.205-0.643-3.174c-0.427-0.967-1.031-1.799-1.809-2.502
		c-0.781-0.705-1.724-1.252-2.832-1.648c-1.108-0.393-2.348-0.586-3.717-0.586c-2.555,0-4.741,0.906-6.558,2.723l1.722,1.881v21.822
		h-6.978V206.68l-3.465-3.676c0.879-1.49,1.872-2.832,2.979-4.027c1.109-1.195,2.313-2.209,3.607-3.043
		c1.295-0.832,2.673-1.471,4.13-1.916c1.462-0.443,2.981-0.666,4.564-0.666c1.536,0,2.996,0.162,4.385,0.482
		c1.39,0.322,2.675,0.785,3.861,1.387c1.185,0.609,2.25,1.338,3.198,2.197c0.951,0.865,1.762,1.83,2.436,2.895
		c0.673,1.066,1.192,2.227,1.555,3.473c0.366,1.25,0.545,2.57,0.545,3.965V226.266z"/>
	<path fill="#004994" d="M318.799,201.279c0.471,0.693,0.863,1.463,1.18,2.305c0.315,0.846,0.474,1.75,0.474,2.725v9.441
		c0,1.008-0.143,1.979-0.421,2.91c-0.284,0.932-0.681,1.805-1.195,2.619c-0.517,0.813-1.135,1.553-1.857,2.217
		c-0.72,0.66-1.517,1.23-2.392,1.705c-0.871,0.477-1.811,0.844-2.822,1.107c-1.006,0.264-2.051,0.395-3.127,0.395
		c-1.619,0-3.142-0.289-4.571-0.861c-1.432-0.572-2.675-1.357-3.737-2.346c-1.061-0.992-1.898-2.154-2.514-3.484
		c-0.617-1.328-0.921-2.75-0.921-4.262c0-1.207,0.133-2.268,0.404-3.174c0.267-0.908,0.625-1.701,1.07-2.383
		c0.446-0.68,0.95-1.271,1.513-1.775c0.561-0.502,1.14-0.953,1.731-1.354c0.593-0.398,1.169-0.766,1.732-1.1
		c0.562-0.332,1.068-0.672,1.513-1.018c0.444-0.348,0.804-0.721,1.072-1.125c0.269-0.406,0.404-0.871,0.404-1.402
		c0-0.324-0.034-0.615-0.096-0.865c-0.065-0.252-0.156-0.492-0.274-0.715l-4.024,3.322l-8.211-6.207l4.043-4.885l4.027,2.883
		l3.536-2.955c1.663,0.645,3.063,1.414,4.199,2.305c1.137,0.889,2.018,1.9,2.639,3.023l7.262-7.721l4.973,4.627L318.799,201.279z
		 M306.335,211.795c-0.375,0.268-0.718,0.537-1.028,0.799c-0.311,0.266-0.578,0.551-0.8,0.854c-0.224,0.305-0.395,0.645-0.511,1.01
		c-0.114,0.369-0.174,0.803-0.174,1.293c0,0.598,0.124,1.166,0.378,1.705c0.25,0.539,0.594,1.016,1.026,1.426
		c0.437,0.412,0.945,0.734,1.531,0.973c0.586,0.24,1.212,0.363,1.881,0.363c0.703,0,1.352-0.119,1.943-0.354s1.099-0.557,1.52-0.967
		c0.423-0.41,0.753-0.891,0.994-1.441c0.239-0.551,0.36-1.143,0.36-1.775v-9.283c0-0.293-0.036-0.574-0.106-0.846
		c-0.069-0.268-0.176-0.566-0.316-0.895c-0.199,0.916-0.509,1.703-0.923,2.367c-0.415,0.662-0.918,1.256-1.504,1.791
		c-0.585,0.535-1.242,1.031-1.967,1.496C307.912,210.775,307.144,211.266,306.335,211.795z"/>
	<path fill="#004994" d="M314.176,188.159v-9.995h6.7v9.926L314.176,188.159z"/>
	<path fill="#004994" d="M347.599,226.266h-6.978v-20.24c0-4.17-2.018-6.258-6.048-6.258c-0.505,0-0.998,0.045-1.476,0.133
		c-0.482,0.086-0.977,0.246-1.489,0.475c-0.509,0.227-1.043,0.553-1.608,0.967c-0.563,0.418-1.177,0.947-1.846,1.59l-4.676-4.674
		c1.008-0.996,1.968-1.811,2.882-2.436c0.915-0.627,1.821-1.121,2.718-1.477c0.895-0.359,1.799-0.602,2.709-0.732
		c0.906-0.129,1.858-0.193,2.854-0.193c2.217,0,4.134,0.334,5.759,0.994c1.625,0.662,2.967,1.547,4.035,2.656
		c1.067,1.105,1.86,2.393,2.384,3.861c0.52,1.463,0.779,2.992,0.779,4.584V226.266z"/>
	<rect x="16.531" y="244.377" fill="#E4003A" width="331.117" height="3.021"/>
	<g>
		<rect x="190.031" y="15.465" fill="#004994" width="157.617" height="157.613"/>
		<g>
			<g>
				<g>
					<g>
						<polygon fill="#E4003A" points="287.708,93.302 347.648,15.463 338.794,15.463 278.654,93.302 						"/>
					</g>
					<g>
						<path fill="#FFFFFF" d="M310.469,128.037c2.748,7.686,8.403,27.686,10.658,29.28h-14.861c0,0-0.055-2.953-0.701-5.244
							c-0.64-2.286-6.017-19.582-6.017-19.582h-23.603l-3.713,5.262c0,0,4.458,13.955,4.734,14.639
							c0.482,1.235,2.611,4.924,2.611,4.924h-14.241c0,0-0.37-2.132-0.512-3.017c-0.107-0.717-1.346-4.641-1.346-4.641
							s-3.232,3.533-4.111,5.172c-0.884,1.64-1.282,2.485-1.282,2.485h-11.142c0,0-0.369-2.132-0.51-3.017
							c-0.109-0.717-1.469-4.958-1.469-4.958s-3.121,3.784-4.009,5.425c-0.881,1.639-1.26,2.55-1.26,2.55h-11.022
							c0,0,3.116-2.961,4.204-4.238c1.832-2.158,8.677-11.095,8.677-11.095l-2.746-9.493h-23.43c0,0-13.356,17.552-13.883,18.093
							c-0.531,0.54-4.426,6.128-4.512,6.732h-6.951v-4.419c0.136-0.134,0.23-0.231,0.278-0.265
							c0.211-0.158,10.125-12.463,19.232-24.596c8.183-10.58,15.861-20.869,16.535-21.852c1.63-2.368,3.979-7.486,3.979-7.486
							h12.116c0,0,0.374,4.708,0.726,5.85c0.318,1.009,7.697,25.221,7.868,25.484l4.078-5.219l-6.97-21.472
							c0,0-1.635-4.039-2.167-4.643h14.144c0,0-0.108,2.076,0.464,3.847c0.574,1.771,3.61,12.713,3.61,12.713
							s9.649-12.093,10.214-12.962c1.057-1.461,1.191-3.598,1.191-3.598h11.786c0,0-2.154,1.576-5.94,6.36
							c-1.272,1.611-13.717,17.431-13.717,17.431s1.087,3.703,1.613,5.547c0.147,0.53,0.245,0.888,0.245,0.925
							c0,0.016,0.276-0.319,0.749-0.925c3.21-4.069,17.823-23.227,18.708-24.866c0.707-1.324,1.763-2.832,2.375-4.472h11.505
							c0,0,0.266,3.435,0.617,4.384L310.469,128.037z M292.967,109.904c-1.687,3.631-11.629,15.731-11.629,15.731h15.74
							c0,0-3.05-9.398-3.583-11.512c-0.422-1.688-0.309-3.857-0.309-4.118C293.185,109.814,293.15,109.5,292.967,109.904z
							 M232.482,109.904c-1.687,3.631-11.625,15.731-11.625,15.731h15.744c0,0-3.053-9.398-3.585-11.512
							c-0.423-1.688-0.311-3.857-0.311-4.118C232.704,109.814,232.667,109.5,232.482,109.904z M256.183,146.594l4.335-5.953
							c-0.401-0.428-2.842-7.829-2.842-7.829l-4.19,5.436L256.183,146.594z"/>
					</g>
				</g>
			</g>
		</g>
	</g>
	<g>
		<rect x="17.373" y="15.463" fill-rule="evenodd" clip-rule="evenodd" fill="#0098D8" width="157.615" height="157.612"/>
		<path fill-rule="evenodd" clip-rule="evenodd" fill="#FFFFFF" d="M143.582,113.766c0,0-13.957,27.399-5.87,30.885
			c2.806,1.177,6.102,0.62,7.782-2.628c1.369-2.692-3.063,2.566-5.624,0.289c-3.059-2.703,0.696-9.35,4.414-16.228
			c5.133-9.417,8.626-16.373,9.324-20.984c0,0,3.02,2.258,4.26-4.784c1.012-5.751,2.954-11.452,1.007-20.34
			c0,0-1.426-6.405-8.232-12.525c0,0,3.905-0.287-0.395-4.578c0,0-7.116-7.567-20.809-13.314c-7.31-3.068-15.562-1.784-14.778,5.645
			c0.556,5.223-4.814,7.216-9.06,6.734c-4.949-0.559-7.933-4.255-7.134-7.263c0.841-3.253,2.701-5.754,5.49-7.704
			c1.885-1.319,3.189-2.25,6.646-2.893c2.094-0.403,4.827-1.014,5.567,1.128c1.455-0.678,3.976-5.006-4.269-5.068
			c0,0-1.26-2.425-4.041-1.913c0,0-8.244-7.325-17.379,1.722c0,0-3.598,1.309-3.794,0.057c0.808,0.583,2.121-1.191,0.328-1.813
			c-0.851-0.289-1.864,0.544-2.012,1.33c-0.123,0.578,0.078,1.924,1.9,2.19c0.449,0.065,1.328,0,1.328,0l-0.598,0.646
			c-2.706,1.065-5.377,0.249-5.909-1.542c0.67,0.352,1.354-0.074,1.596-0.723c0.194-0.663-0.291-1.571-1.36-1.7
			c-1.493-0.215-2.191,1.355-1.888,2.743c0.492,2.126,2.833,3.633,5.861,3.269l-0.522,0.711c0,0-3.016,3.428-5.498,7.325
			c-2.525,3.977-12.729,8.324-10.985-1.093c0.575-3.017-4.955-6.601-14.553-0.61c-5.121,3.187-11.425,7.993-16.071,15.748
			c0,0-2.082,2.978,1.325,3.055c0,0-6.384,4.348-6.892,15.754c-0.07,4.549-0.485,9.971,1.37,16.833c0,0,0.918,3.874,3.262,1.811
			c0,0,2.101,9.696,6.501,17.832c3.52,6.385,10.033,15.764,7.479,18.031c-2.539,2.252-6.125-2.257-5.554-0.43
			c1.177,3.843,5.513,4.404,7.873,2.723c6.055-4.357-2.862-14.814-5.602-28.096c0,0,6.451-1.238,5.691-10.494
			c0,0,8.603,0.702,10.893-9.236c0,0,9.825,3.36,14.617-5.305c0.984,2.745,2.989,5.225,5.541,7.33c0,0-0.5,3.845-5.164,5.184
			c0,0-5.728-2.201-11.889,0c-5.689,2.034-3.427,7.589,0.725,6.242c-1.265-0.621-1.62-2.437,0.397-2.823
			c1.816,1.888,10.697,2.216,11.978-0.799c1.269,0.062,2.083,1.843,0.322,2.695c3.459,0.67,4.68-2.633,3.258-4.399
			c0,0,0.811-0.48,1.729-1.167c0,0,1.076-0.965,1.89-2.078c0,0,3.404,2.438,9.685,3.795c0,0-3.286,4.956-8.135,5.897
			c0,0-6.937-2.033-11.583,0.608c0,0-2.505,1.188-2.123,3.713c0.301,1.909,1.957,3.211,4.461,2.903
			c-1.025-0.451-3.276-2.735-0.429-3.714c3.645,3.703,12.856,1.069,13.107-0.898c1.377-0.208,3.332,0.376,2.599,2.744
			c1.617-0.209,4.252-2.919,0.397-5.049c0,0,2.287-1.01,4.124-2.497l2.774-2.551c0,0,10.141,1.207,9.376,11.571
			c-0.275,3.505-3.238,11.743-12.133,10.94c-1.061-0.249-2.999-0.963-1.232-5.142c-0.672-0.372-1.645,0.242-2.209,0.801
			c-0.744,0.823-1.025,2.347-0.795,3.907c-1.453-0.38-3.975-0.693-4.538-4.708c-1.114,0.426-1.942,1.752-1.437,3.911
			c0.667,2.927,4.734,4.196,7.981,4.553c1.944,1.667,4.891,3.449,11.793,2.435c0,0-3.064,14.553-23.38,13.918
			c0,0-6.564-1.123-5.504-8.762c0.252-1.956,1.295-4.095,4.556-6.5c-1.771-0.167-6.02,0.181-7.969,5.422
			c-0.864,2.362-0.687,6.168,1.69,8.856c-7.684-1.866-13.486-7.166-11.143-14.334c1.264-3.861,7.089-6.034,12.081-5.435
			c2.85,0.165,4.979,1.087,4.767,0.276c-0.382-1.479-3.137-4.116-7.395-4.342c-4.479-0.267-12.831,2.234-13.469,11.424
			c-0.566,8.493,5.344,14.608,20.063,16.497l0.2,0.157c0,0,8.968,5.716,21.635,2.676c0,0,25.522-4.777,20.065-31.108
			c0,0,6.216-16.52-5.954-26.828c0,0,8.607,5.703,16.777,0.933c0,0-1.175,4.825,0.327,10.472
			C139.117,113.311,143.582,113.766,143.582,113.766z M101.307,38.909c0.285,0.042,0.566,0.103,0.813,0.208
			c0.066,0.095,0.092,0.166,0.092,0.278c0,0.323-0.243,0.554-0.571,0.554c-0.346,0-0.583-0.231-0.583-0.554
			C101.057,39.192,101.168,39.011,101.307,38.909z M100.283,38.951c0,0.023-0.042,0.044-0.042,0.044
			c-0.083,0.778,0.479,1.458,1.248,1.559c0.698,0.071,1.349-0.353,1.536-0.997c0.395,0.268,0.738,0.542,0.986,0.798
			c-1.511,0.022-1.746,0.71-3.067,0.455c-0.643-0.109-1.339-0.802-1.38-1.617C99.849,39.046,99.925,39.016,100.283,38.951z
			 M120.677,127.08c0,0,0.754-1.212,1.127,0.532c0,0,0.793,9.234-5.259,14.896c-4.011,3.791-13.286,9.186-23.812,6.828
			c0,0,16.788-1.037,21.078-16.152l0.483-1.69C114.294,131.493,118.496,130.554,120.677,127.08z"/>
	</g>
	<g>
		<g>
			<path fill="#004994" d="M23.999,278.414c-1.911,0-3.492-0.535-4.704-1.609c-1.236-1.078-1.868-2.531-1.868-4.336v-10.932h3.357
				v10.676c0,0.934,0.291,1.662,0.866,2.178c0.578,0.539,1.399,0.807,2.426,0.807c1.035,0,1.998-0.301,2.952-0.922
				c0.857-0.59,1.282-1.246,1.282-2.016v-10.723h3.351v16.604H28.31v-1.047C27.054,277.967,25.607,278.414,23.999,278.414
				L23.999,278.414z"/>
			<rect x="18.594" y="256.932" fill="#004994" width="13.066" height="2.969"/>
			<path fill="#004994" d="M41.985,278.371c-2.439,0-4.367-0.555-5.728-1.662c-1.331-1.09-2.005-2.471-2.005-4.105
				c0-1.041,0.35-1.99,1.03-2.855c0.338-0.434,0.716-0.807,1.136-1.111c-0.357-0.221-0.68-0.508-0.971-0.846
				c-0.564-0.635-0.854-1.361-0.854-2.17c0-0.615,0.146-1.207,0.431-1.75c0.286-0.549,0.694-1.004,1.205-1.367
				c0.476-0.344,1.036-0.633,1.7-0.852c0.637-0.209,1.326-0.309,2.114-0.309c0.919,0,1.823,0.152,2.692,0.445l0.344,0.115v3.158
				l-0.628-0.143c-0.575-0.135-1.081-0.217-1.493-0.283c-0.398-0.066-0.691-0.1-0.875-0.1c-2.056,0-2.056,0.791-2.056,1.084
				c0,0.305,0,1.199,2.516,1.199h2.535v3.213h-2.18c-0.418,0-0.801,0.063-1.186,0.207c-0.407,0.143-0.748,0.33-1.046,0.557
				c-0.289,0.227-0.539,0.502-0.737,0.818c-0.167,0.285-0.249,0.596-0.249,0.943c0,0.795,0.339,1.385,1.066,1.836
				c0.775,0.516,1.865,0.768,3.239,0.768c1.328,0,2.569-0.354,3.687-1.049v-12.576h3.351v13.936l-0.123,0.152
				C47.306,277.453,44.979,278.371,41.985,278.371L41.985,278.371z"/>
			<path fill="#004994" d="M58.524,278.141v-10.133c0-1.115-0.278-2.004-0.825-2.621c-0.533-0.611-1.356-0.918-2.432-0.918
				c-1.145,0-2.209,0.324-3.259,1.012l-0.798,0.512v-3.711l0.27-0.15c1.072-0.578,2.382-0.873,3.903-0.873
				c2.127,0,3.778,0.613,4.925,1.842c1.037,1.037,1.569,2.479,1.569,4.277v10.764H58.524z"/>
			<path fill="#004994" d="M72.706,278.414c-1.596,0-3.038-0.447-4.305-1.322v1.049h-3.352v-16.604h3.352v10.723
				c0,0.77,0.421,1.426,1.29,2.027c0.937,0.604,1.929,0.91,2.941,0.91c1.023,0,1.846-0.268,2.429-0.805
				c0.575-0.518,0.866-1.246,0.866-2.18v-10.676h3.352v10.932c0,1.805-0.627,3.264-1.868,4.338
				C76.195,277.879,74.612,278.414,72.706,278.414L72.706,278.414z"/>
			<path fill="#004994" d="M82.877,278.141v-17.932c0-0.93,0.386-1.734,1.147-2.396c0.814-0.73,0.833-1.025,0.833-1.066
				c0-0.291,0-0.842-1.347-0.842c-1.083,0-1.52,0.449-1.52,1.537v0.506h-3.354v-0.506c0-0.678,0.124-1.303,0.375-1.896
				c0.249-0.564,0.595-1.059,1.032-1.488c0.434-0.416,0.959-0.756,1.557-0.971c0.616-0.209,1.257-0.32,1.91-0.32
				c0.631,0,1.238,0.104,1.816,0.309c0.548,0.203,1.037,0.469,1.459,0.793c0.454,0.354,0.8,0.777,1.035,1.25
				c0.255,0.459,0.389,0.99,0.389,1.553c0,0.795-0.389,1.582-1.164,2.336c-0.546,0.564-0.815,1.084-0.815,1.605v17.529H82.877z"/>
			<path fill="#004994" d="M100.698,278.141v-8.307c0-0.836-0.336-1.514-1.004-2.029c-0.671-0.537-1.494-0.816-2.444-0.844
				l-4.468,3.107v8.072h-3.345v-16.604h3.345v4.723l7.366-4.959l3.94,1.023l-3.538,2.469c0.87,0.309,1.608,0.783,2.212,1.412
				c0.86,0.895,1.295,1.988,1.295,3.238v8.697H100.698z"/>
			<path fill="#004994" d="M114.693,278.414c-1.599,0-3.041-0.447-4.309-1.332v1.059h-3.355v-16.604h3.355v10.723
				c0,0.77,0.418,1.426,1.292,2.027c0.927,0.604,1.918,0.91,2.936,0.91c1.043,0,1.841-0.262,2.434-0.805
				c0.575-0.518,0.865-1.246,0.865-2.18v-10.676h3.354v10.932c0,1.805-0.63,3.264-1.877,4.338
				C118.176,277.879,116.595,278.414,114.693,278.414L114.693,278.414z"/>
			<rect x="117.912" y="255.291" fill="#004994" width="3.354" height="4.619"/>
		</g>
		<g>
			<path fill="#004994" d="M164.121,278.303c-1.783,0-3.276-0.645-4.443-1.912c-1.173-1.229-1.771-2.865-1.771-4.848
				c0-2.4,1.166-4.654,3.465-6.678l-1.838-2.629l1.348-0.924l2.625,3.707l-0.162,0.121c-2.534,2.021-3.817,4.17-3.817,6.402
				c0,0.764,0.112,1.441,0.345,2.072c0.223,0.602,0.542,1.148,0.952,1.611c0.397,0.455,0.884,0.814,1.437,1.064
				c0.564,0.254,1.191,0.385,1.859,0.385c1.227,0,2.2-0.381,2.977-1.15c0.761-0.781,1.146-1.777,1.146-2.99V261.65h1.625v10.885
				c0,0.82-0.148,1.594-0.441,2.309c-0.277,0.695-0.668,1.291-1.197,1.832c-0.537,0.516-1.15,0.92-1.82,1.193
				C165.705,278.154,164.933,278.303,164.121,278.303L164.121,278.303z"/>
			<path fill="#004994" d="M179.315,278.303c-2.294,0-4.167-0.795-5.57-2.391c-1.41-1.572-2.119-3.613-2.119-6.078
				c0-0.217,0.037-0.688,0.116-1.422l0.018-0.193h5.499v1.641h-4.01c0.039,2.074,0.609,3.658,1.696,4.895
				c1.14,1.273,2.609,1.922,4.371,1.922c1.747,0,3.203-0.648,4.331-1.922c1.151-1.285,1.735-2.939,1.735-4.92s-0.572-3.641-1.7-4.91
				c-1.114-1.271-2.576-1.928-4.366-1.928c-2.689,0-4.483,1.213-5.489,3.715l-0.052,0.137h-1.71l0.085-0.279
				c0.503-1.605,1.399-2.904,2.662-3.822c1.256-0.92,2.773-1.379,4.504-1.379c2.281,0,4.142,0.805,5.564,2.371
				c1.41,1.584,2.124,3.629,2.124,6.096c0,2.453-0.714,4.5-2.124,6.078C183.471,277.508,181.599,278.303,179.315,278.303
				L179.315,278.303z"/>
			<path fill="#004994" d="M192.917,278.064c-0.244,0-0.479-0.01-0.7-0.02l-0.988-0.057l-3.913-16.053l1.622-0.373l3.628,14.918
				c0.156,0.014,0.314,0.014,0.457,0.014c1.905,0,3.478-0.537,4.679-1.572c1.326-1.166,1.998-2.898,1.998-5.129
				c0-2.092-0.548-3.729-1.624-4.85c-1.078-1.152-2.6-1.707-4.649-1.707h-0.474c-0.15,0-0.314,0.012-0.482,0.045l-0.251,0.041
				v-1.648l0.181-0.023c0.194-0.025,0.395-0.043,0.594-0.043h0.553c2.551,0,4.504,0.732,5.808,2.184
				c1.304,1.441,1.956,3.467,1.956,6.002c0,2.619-0.758,4.658-2.247,6.104C197.568,277.332,195.5,278.064,192.917,278.064
				L192.917,278.064z"/>
			<path fill="#004994" d="M214.21,278.031v-10.91c0-1.299-0.469-2.346-1.396-3.098c-0.852-0.678-1.985-1.027-3.367-1.027
				c-2.153,0-3.716,0.742-4.79,2.301l0.041,12.734h-1.626v-13.215c1.564-2.332,3.695-3.449,6.375-3.449
				c1.76,0,3.253,0.457,4.437,1.359c1.295,0.963,1.948,2.322,1.948,4.039v11.266H214.21z"/>
			<path fill="#004994" d="M224.665,278.031v-10.502c0-1.477-0.35-2.6-1.059-3.408c-0.688-0.799-1.737-1.203-3.1-1.203
				c-1.217,0-2.218,0.307-2.966,0.908l-0.358,0.283v-1.828l0.119-0.061c1.066-0.57,2.157-0.854,3.24-0.854
				c1.858,0,3.332,0.568,4.379,1.697c0.905,1.035,1.365,2.408,1.365,4.098v10.869H224.665z"/>
			<path fill="#004994" d="M234.493,278.33c-1.762,0-3.266-0.447-4.464-1.334c-1.317-1.012-1.979-2.365-1.979-4.045v-0.217h1.618
				v0.217c0,1.199,0.477,2.113,1.456,2.807c0.86,0.631,1.989,0.951,3.369,0.951c1.333,0,2.456-0.32,3.335-0.951
				c1.012-0.709,1.508-1.625,1.508-2.807c0-1.582-1.572-2.678-4.673-3.256c-1.016-0.191-1.86-0.375-2.537-0.541
				c-0.69-0.18-1.223-0.354-1.614-0.518c-1.41-0.646-2.117-1.586-2.117-2.793c0-1.254,0.62-2.348,1.839-3.24
				c1.12-0.766,2.483-1.148,4.063-1.148c1.572,0,2.957,0.352,4.131,1.059c1.301,0.816,2.086,1.926,2.329,3.301l0.04,0.248h-1.691
				l-0.046-0.158c-0.245-0.914-0.845-1.621-1.843-2.145c-0.832-0.459-1.815-0.688-2.92-0.688c-1.038,0-2.019,0.258-2.911,0.777
				c-0.863,0.498-1.279,1.094-1.279,1.838c0,0.646,0.514,1.186,1.53,1.594c0.261,0.105,0.657,0.215,1.207,0.334
				c0.324,0.066,0.692,0.143,1.12,0.24l1.019,0.219c3.962,0.779,5.984,2.428,5.984,4.877c0,1.68-0.675,3.033-1.999,4.045
				C237.799,277.883,236.3,278.33,234.493,278.33L234.493,278.33z"/>
			<path fill="#004994" d="M249.092,278.303c-1.717,0-3.221-0.514-4.464-1.52c-1.292-1.047-1.911-2.344-1.911-3.955V261.65h1.624
				v11.178c0,0.566,0.119,1.09,0.368,1.543c0.243,0.459,0.589,0.865,1.021,1.213c0.434,0.348,0.936,0.613,1.524,0.805
				c0.597,0.191,1.195,0.287,1.838,0.287c0.678,0,1.283-0.096,1.852-0.287c0.59-0.191,1.081-0.457,1.511-0.805
				c0.436-0.348,0.783-0.754,1.013-1.207c0.253-0.445,0.376-0.967,0.376-1.549l-0.394-15.174h1.626l0.393,15.174
				c0,1.607-0.623,2.904-1.896,3.955C252.317,277.789,250.81,278.303,249.092,278.303L249.092,278.303z"/>
			<path fill="#004994" d="M263.687,278.33c-1.774,0-3.274-0.447-4.47-1.334c-1.315-1.016-1.986-2.371-1.986-4.045v-0.217h1.616
				v0.217c0,1.199,0.476,2.113,1.466,2.807c0.872,0.631,2.001,0.951,3.374,0.951c1.318,0,2.446-0.32,3.333-0.951
				c1.004-0.707,1.491-1.623,1.491-2.807c0-1.582-1.568-2.678-4.663-3.256c-1.009-0.191-1.867-0.375-2.537-0.541
				c-0.714-0.184-1.238-0.355-1.607-0.518c-1.411-0.646-2.123-1.586-2.123-2.793c0-1.25,0.617-2.334,1.842-3.24
				c1.147-0.777,2.467-1.148,4.059-1.148c1.58,0,2.947,0.34,4.134,1.059c1.31,0.809,2.082,1.916,2.324,3.301l0.037,0.248h-1.688
				l-0.041-0.158c-0.246-0.914-0.848-1.621-1.829-2.145c-0.862-0.471-1.817-0.688-2.937-0.688c-1.044,0-2.027,0.258-2.898,0.777
				c-0.879,0.502-1.299,1.102-1.299,1.838c0,0.646,0.518,1.186,1.536,1.594c0.256,0.105,0.659,0.215,1.207,0.334
				c0.314,0.066,0.693,0.143,1.117,0.24l1.018,0.219c3.971,0.779,5.982,2.428,5.982,4.877c0,1.68-0.673,3.033-1.998,4.045
				C266.983,277.883,265.486,278.33,263.687,278.33L263.687,278.33z"/>
			<path fill="#004994" d="M271.304,276.031v-2.664h1.616v1.072h2.593v1.592H271.304z M271.304,266.307v-2.66h1.616v1.068h2.593
				v1.592H271.304z"/>
			<path fill="#004994" d="M287.603,278.031v-10.91c0-1.305-0.463-2.354-1.385-3.098c-0.854-0.678-1.982-1.027-3.361-1.027
				c-2.148,0-3.723,0.742-4.798,2.301l0.047,12.734h-1.623v-13.215c1.55-2.332,3.678-3.449,6.375-3.449
				c1.766,0,3.258,0.459,4.416,1.359c1.303,0.963,1.961,2.314,1.961,4.039v11.266H287.603z"/>
			<polygon fill="#004994" points="283.62,260.088 283.616,257.256 285.208,257.256 285.208,258.449 294.402,258.449 
				294.402,260.088 			"/>
			<path fill="#004994" d="M297.563,278.303c-1.723,0-3.162-0.514-4.279-1.527c-1.134-1.049-1.696-2.375-1.696-3.947V261.65h1.614
				v11.178c0,1.158,0.41,2.102,1.207,2.777c0.788,0.709,1.85,1.07,3.153,1.07c1.275,0,2.476-0.414,3.575-1.248
				c1.064-0.822,1.579-1.791,1.579-2.965V261.65h1.62v16.381h-1.62v-1.834c-0.503,0.543-1.174,1.016-1.981,1.398
				C299.673,278.064,298.604,278.303,297.563,278.303L297.563,278.303z"/>
			<path fill="#004994" d="M310.694,278.262c-1.641,0-3.138-0.273-4.454-0.801l-0.142-0.061v-15.75h1.614v14.535
				c0.901,0.324,1.919,0.49,3.047,0.49h0.231c1.799-0.029,3.154-0.496,4.146-1.418c0.959-0.914,1.458-2.158,1.458-3.715
				c0-1.533-0.488-2.832-1.451-3.861c-0.992-1.012-2.297-1.689-3.873-2.006l-0.407-0.092l4.467-4.207l1.158,0.99l-2.758,2.652
				c2.967,1.275,4.484,3.467,4.484,6.523c0,1.975-0.622,3.582-1.845,4.779c-1.292,1.24-3.113,1.887-5.408,1.939H310.694z"/>
			<polygon fill="#004994" points="305.665,259.814 305.665,258.186 315.635,258.186 315.606,256.197 317.263,256.229 
				317.25,259.814 			"/>
			<path fill="#004994" d="M325.43,278.303c-0.65,0-1.332-0.105-2.019-0.314c-0.688-0.244-1.297-0.557-1.843-0.963
				c-0.508-0.379-0.99-0.871-1.414-1.453c-0.406-0.59-0.683-1.205-0.847-1.855l-0.063-0.27h1.655l0.052,0.143
				c0.331,0.93,0.915,1.697,1.741,2.256c0.851,0.547,1.753,0.83,2.738,0.83c1.624,0,2.913-0.711,3.839-2.098
				c0.892-1.279,1.324-2.83,1.324-4.744c0-1.9-0.443-3.494-1.32-4.738c-0.944-1.391-2.225-2.1-3.843-2.1
				c-0.969,0-1.848,0.285-2.69,0.854c-0.843,0.578-1.414,1.301-1.753,2.229l-0.053,0.139h-1.689l0.063-0.271
				c0.164-0.645,0.441-1.254,0.846-1.836c0.399-0.57,0.862-1.053,1.415-1.461c0.583-0.436,1.183-0.736,1.843-0.947
				c0.632-0.223,1.312-0.334,2.019-0.334c2.142,0,3.843,0.861,5.082,2.564c1.128,1.553,1.693,3.533,1.693,5.902
				c0,2.332-0.565,4.316-1.693,5.902C329.273,277.449,327.572,278.303,325.43,278.303L325.43,278.303z"/>
			<rect x="319.663" y="258.186" fill="#004994" width="11.959" height="1.629"/>
			<path fill="#004994" d="M339.119,278.227c-1.871,0-3.333-0.766-4.345-2.295c-0.966-1.451-1.427-3.412-1.402-5.822
				c0.062-2.193,0.631-4.176,1.71-5.898c1.132-1.697,2.398-2.65,3.766-2.844l0.119-0.018l2.178,2.49l1.936-2.307
				c0.1-0.014,0.199-0.014,0.292-0.014c1.357,0,2.349,0.504,3.073,1.418c0.759,0.975,1.153,2.219,1.153,3.693v11.4h-1.615v-11.4
				c0-0.891-0.232-1.711-0.677-2.441c-0.436-0.656-0.955-1.053-1.568-1.172l-2.59,3.166l-2.689-3.143
				c-0.723,0.324-1.415,1.059-2.098,2.236c-0.853,1.482-1.314,3.113-1.358,4.84c-0.035,1.783,0.288,3.322,0.957,4.563
				c0.743,1.285,1.777,1.92,3.16,1.92c0.835,0,1.51-0.379,2.04-1.148l0.128-0.178l1.304,0.975l-0.125,0.168
				C341.612,277.615,340.482,278.227,339.119,278.227L339.119,278.227z"/>
		</g>
		<g>
			<polygon fill="#E4003A" points="131.533,283.398 152.828,255.695 147.745,255.695 126.384,283.398 			"/>
		</g>
	</g>
	<g>
		<path fill="#009CDE" d="M124.779,206.438c0-0.998,0.177-1.887,0.526-2.652c0.362-0.793,0.844-1.453,1.47-2.012
			c0.639-0.576,1.415-1.031,2.307-1.359c0.931-0.336,1.967-0.51,3.076-0.51c1.769,0,3.152,0.4,4.222,1.215
			c1.114,0.893,1.613,1.939,1.613,3.379v21.604h6.934V204.43c0-3.359-1.388-6.121-4.115-8.197l-0.053-0.043
			c-2.448-1.787-5.342-2.693-8.602-2.693c-2.592,0-5.203,0.877-7.378,3.053v-2.717h-6.941v32.27h6.941V206.438z"/>
		<path fill="#009CDE" d="M40.533,197.043c-2.118-2.121-5.05-3.197-8.73-3.197h-14.43l0.024,32.279h6.612l-0.016-26.219l8.639-0.002
			c0.019,0.002,1.757,0.127,3.044,1.389c1.083,1.059,1.63,2.688,1.634,4.83l0.005,19.982h6.515l-0.008-19.541
			C43.87,205.861,44.093,200.615,40.533,197.043z"/>
		<path fill="#009CDE" d="M62.043,205.027l-0.618-0.09c-2.317-0.328-4.941-0.699-5.854-1.717c-0.232-0.26-0.343-0.547-0.343-0.855
			c0.03-1.684,2.575-2.861,6.183-2.861c2.879,0,7.25,1.074,9.679,3.07l1.009,0.826l0.041-1.307c0.015-0.488,0.038-1.305,0.062-2.141
			c0.034-1.225,0.073-2.5,0.088-2.875l0.016-0.348l-0.284-0.199c-1.284-0.922-4.992-3.064-11.643-3.064
			c-7.072,0-12.289,3.791-12.406,9.021c-0.007,0.584,0.029,1.15,0.11,1.676c0.213,1.379,0.735,2.518,1.585,3.473
			c2.249,2.545,6.458,3.277,10.578,3.811c2.428,0.316,4.036,0.949,4.911,1.938c0.439,0.5,0.706,1.076,0.81,1.768
			c0.037,0.26,0.055,0.545,0.053,0.846c-0.074,4.109-5.284,4.434-6.877,4.434c-3.469,0-7.151-1.141-10.1-3.125l-0.97-0.654
			l-0.063,2.545c-0.012,0.625-0.027,1.338-0.042,1.986c-0.021,0.707-0.032,1.342-0.038,1.721l-0.012,0.621l0.321,0.191
			c3.094,1.85,6.868,2.746,11.541,2.746c8.287,0,13.302-4.131,13.417-11.057c0.046-2.668-0.622-4.764-2.048-6.398
			C69.359,206.947,66.465,205.682,62.043,205.027z"/>
		<polygon fill="#009CDE" points="61.584,229.17 61.588,234.656 64.517,234.656 64.517,237.979 70.538,237.979 70.529,229.17 		"/>
		<path fill="#009CDE" d="M109.685,187.486c-2.384-2.01-5.521-3.031-9.323-3.031H85.309v5.957l14.933-0.057c0.049,0,0.105,0,0.159,0
			h0.241c2.094,0,3.659,0.457,4.647,1.354c0.971,0.889,1.445,2.197,1.445,4.02l0.015,30.373h6.681l-0.016-29.859
			C113.414,192.525,112.16,189.579,109.685,187.486z"/>
		<path fill="#009CDE" d="M154.243,216.857c0,0.154,0.002,0.299,0.002,0.438c0,0.797,0.295,1.51,0.827,2.008
			c0.478,0.461,1.129,0.727,1.856,0.77l0.449-0.012h10.907l-0.013-26.215h6.608l0.017,32.279h-17.619
			c-2.406,0-4.707-0.922-6.479-2.596c-1.862-1.766-2.889-4.123-2.889-6.627c0-2.84,1.054-5.547,2.849-7.402
			c-2.849-2.791-2.938-6.398-2.938-6.824c-0.002-2.33,0.913-4.529,2.577-6.195c1.693-1.699,3.955-2.635,6.37-2.635h8.455l0.001,6.1
			h-7.766c-1.853,0-3.304,1.371-3.304,3.127c0,0.842,0.456,1.803,1.192,2.506c0.627,0.611,1.396,0.984,2.069,1h7.867l0.001,5.916
			h-7.905l-0.449-0.014c-0.728,0.043-1.379,0.311-1.856,0.768c-0.532,0.5-0.827,1.213-0.827,2.01L154.243,216.857z"/>
		<path fill="#009CDE" d="M98.366,197.047c-2.097-2.129-5.011-3.207-8.667-3.207c0,0-3.234,0.021-3.763,0.021h-0.642l0.009,6.072
			l5.241-0.012c0.184,0.016,1.788,0.188,2.993,1.385c1.076,1.072,1.623,2.703,1.623,4.854l-0.012,7.842
			c-0.003,2.115-0.546,3.715-1.615,4.764c-0.559,0.549-1.201,0.883-1.748,1.074l-1.455-3.012l-8.7-15.465h-7.302l1.704,3.098
			c0.118,0.225,10.793,20.133,10.903,20.332l0.077,0.143l0.009,0.006c0.064,0.119,0.153,0.293,0.16,0.301l0.492,0.891h2.021h1.114
			l0.468-0.037l0.014-0.033c2.911-0.275,5.288-1.313,7.063-3.086c2.407-2.404,3.071-5.545,3.234-7.531h0.05v-0.9
			c0.004-0.221,0.001-0.422,0-0.584l-0.016-7.355C101.675,205.896,101.929,200.674,98.366,197.047z"/>
	</g>
</g>
</svg>
